# xmcd
#
# Track frame offsets:
#	150
#	18685
#	39665
#	53389
#	66966
#	80934
#	97788
#	113465
#	130705
#	144640
#	172001
#	190848
#	204205
#	222658
#	241477
#	255171
#	270021
#	285976
#	299647
#	310338
#	323186
#
# Disc length: 4469
#
# Revision: 2
# Processed by: cddbd v1.5.1PL0 Copyright (c) Steve Scherf et al.
# Submitted via: FreeRIP 2.90 
# Normalized: r1:TRMNUM
#
DISCID=2e117315
DTITLE=Ricardo Costa - Acústico e ao vivo - Vol. 2 - Acústico e ao vivo - Volume 2
DYEAR=2004
DGENRE=Sertanejo
TTITLE0=Feito eu
TTITLE1=Coração aberto
TTITLE2=Vem cuidar de mim
TTITLE3=Você só me faz feliz
TTITLE4=O que a gente não faz por amor
TTITLE5=Dois corações e uma história
TTITLE6=Sonhei com você
TTITLE7=Solidão
TTITLE8=Você decide
TTITLE9=Rasgando as madrugadas (Part. Ronan e Ronaldo)
TTITLE10=Desculpe mas eu vou chorar (Part. Ronan e Ronaldo)
TTITLE11=Eu sem você (Part. Ronan e Ronaldo)
TTITLE12=Onde andarás (Part. Ronan e Ronaldo)
TTITLE13=Cheiro de maçã
TTITLE14=Eu quero esse amor
TTITLE15=Páginas de amigos
TTITLE16=Princesa
TTITLE17=Coração quer te encontrar
TTITLE18=Eu duvido
TTITLE19=Você vai ver
TTITLE20=Tô caindo fora
EXTD=
EXTT0=
EXTT1=
EXTT2=
EXTT3=
EXTT4=
EXTT5=
EXTT6=
EXTT7=
EXTT8=
EXTT9=
EXTT10=
EXTT11=
EXTT12=
EXTT13=
EXTT14=
EXTT15=
EXTT16=
EXTT17=
EXTT18=
EXTT19=
EXTT20=
PLAYORDER=
